<svg id="visual" viewBox="0 0 900 600" width="900" height="600" xmlns="http://www.w3.org/2000/svg" xmlns:xlink="http://www.w3.org/1999/xlink" version="1.1"><g><g transform="translate(259 422)"><path d="M0 -103.3L80.8 -64.4L100.7 23L44.8 93.1L-44.8 93.1L-100.7 23L-80.8 -64.4Z" stroke="#297EA6" fill="none" stroke-width="2"></path></g><g transform="translate(53 598)"><path d="M0 -67L52.4 -41.8L65.3 14.9L29.1 60.4L-29.1 60.4L-65.3 14.9L-52.4 -41.8Z" stroke="#297EA6" fill="none" stroke-width="2"></path></g><g transform="translate(495 127)"><path d="M0 -32L25 -20L31.2 7.1L13.9 28.8L-13.9 28.8L-31.2 7.1L-25 -20Z" stroke="#297EA6" fill="none" stroke-width="2"></path></g><g transform="translate(446 590)"><path d="M0 -64L50 -39.9L62.4 14.2L27.8 57.7L-27.8 57.7L-62.4 14.2L-50 -39.9Z" stroke="#297EA6" fill="none" stroke-width="2"></path></g><g transform="translate(38 305)"><path d="M0 -42L32.8 -26.2L40.9 9.3L18.2 37.8L-18.2 37.8L-40.9 9.3L-32.8 -26.2Z" stroke="#297EA6" fill="none" stroke-width="2"></path></g><g transform="translate(785 74)"><path d="M0 -65L50.8 -40.5L63.4 14.5L28.2 58.6L-28.2 58.6L-63.4 14.5L-50.8 -40.5Z" stroke="#297EA6" fill="none" stroke-width="2"></path></g><g transform="translate(592 368)"><path d="M0 -25L19.5 -15.6L24.4 5.6L10.8 22.5L-10.8 22.5L-24.4 5.6L-19.5 -15.6Z" stroke="#297EA6" fill="none" stroke-width="2"></path></g><g transform="translate(106 35)"><path d="M0 -68L53.2 -42.4L66.3 15.1L29.5 61.3L-29.5 61.3L-66.3 15.1L-53.2 -42.4Z" stroke="#297EA6" fill="none" stroke-width="2"></path></g><g transform="translate(854 394)"><path d="M0 -30L23.5 -18.7L29.2 6.7L13 27L-13 27L-29.2 6.7L-23.5 -18.7Z" stroke="#297EA6" fill="none" stroke-width="2"></path></g><g transform="translate(725 595)"><path d="M0 -91L71.1 -56.7L88.7 20.2L39.5 82L-39.5 82L-88.7 20.2L-71.1 -56.7Z" stroke="#297EA6" fill="none" stroke-width="2"></path></g><g transform="translate(237 196)"><path d="M0 -43L33.6 -26.8L41.9 9.6L18.7 38.7L-18.7 38.7L-41.9 9.6L-33.6 -26.8Z" stroke="#297EA6" fill="none" stroke-width="2"></path></g></g></svg>