<svg id="visual" viewBox="0 0 900 600" width="900" height="600" xmlns="http://www.w3.org/2000/svg" xmlns:xlink="http://www.w3.org/1999/xlink" version="1.1"><path d="M0 109L25 110C50 111 100 113 150 116C200 119 250 123 300 125C350 127 400 127 450 122C500 117 550 107 600 99C650 91 700 85 750 77C800 69 850 59 875 54L900 49L900 0L875 0C850 0 800 0 750 0C700 0 650 0 600 0C550 0 500 0 450 0C400 0 350 0 300 0C250 0 200 0 150 0C100 0 50 0 25 0L0 0Z" fill="#da6a94"></path><path d="M0 181L25 171C50 161 100 141 150 133C200 125 250 129 300 133C350 137 400 141 450 140C500 139 550 133 600 139C650 145 700 163 750 168C800 173 850 165 875 161L900 157L900 47L875 52C850 57 800 67 750 75C700 83 650 89 600 97C550 105 500 115 450 120C400 125 350 125 300 123C250 121 200 117 150 114C100 111 50 109 25 108L0 107Z" fill="#c62368"></path><path d="M0 415L25 416C50 417 100 419 150 382C200 345 250 269 300 257C350 245 400 297 450 338C500 379 550 409 600 421C650 433 700 427 750 409C800 391 850 361 875 346L900 331L900 155L875 159C850 163 800 171 750 166C700 161 650 143 600 137C550 131 500 137 450 138C400 139 350 135 300 131C250 127 200 123 150 131C100 139 50 159 25 169L0 179Z" fill="#911b4d"></path><path d="M0 505L25 500C50 495 100 485 150 459C200 433 250 391 300 375C350 359 400 369 450 386C500 403 550 427 600 444C650 461 700 471 750 465C800 459 850 437 875 426L900 415L900 329L875 344C850 359 800 389 750 407C700 425 650 431 600 419C550 407 500 377 450 336C400 295 350 243 300 255C250 267 200 343 150 380C100 417 50 415 25 414L0 413Z" fill="#911b4d"></path><path d="M0 595L25 586C50 577 100 559 150 541C200 523 250 505 300 506C350 507 400 527 450 535C500 543 550 539 600 530C650 521 700 507 750 499C800 491 850 489 875 488L900 487L900 413L875 424C850 435 800 457 750 463C700 469 650 459 600 442C550 425 500 401 450 384C400 367 350 357 300 373C250 389 200 431 150 457C100 483 50 493 25 498L0 503Z" fill="#c62368"></path><path d="M0 601L25 601C50 601 100 601 150 601C200 601 250 601 300 601C350 601 400 601 450 601C500 601 550 601 600 601C650 601 700 601 750 601C800 601 850 601 875 601L900 601L900 485L875 486C850 487 800 489 750 497C700 505 650 519 600 528C550 537 500 541 450 533C400 525 350 505 300 504C250 503 200 521 150 539C100 557 50 575 25 584L0 593Z" fill="#da6a94"></path></svg>